<svg xmlns="http://www.w3.org/2000/svg">
  <defs>
    <!-- javascript icon -->
    <symbol id="javascript" viewBox="0 0 630 630">
      <rect width="630" height="630" fill="#f7df1e"/>
      <path fill="black" d="m423.2 492.19c12.69 20.72 29.2 35.95 58.4 35.95 24.53 0 40.2-12.26 40.2-29.2 0-20.3-16.1-27.49-43.1-39.3l-14.8-6.35c-42.72-18.2-71.1-41-71.1-89.2 0-44.4 33.83-78.2 86.7-78.2 37.64 0 64.7 13.1 84.2 47.4l-46.1 29.6c-10.15-18.2-21.1-25.37-38.1-25.37-17.34 0-28.33 11-28.33 25.37 0 17.76 11 24.95 36.4 35.95l14.8 6.34c50.3 21.57 78.7 43.56 78.7 93 0 53.3-41.87 82.5-98.1 82.5-54.98 0-90.5-26.2-107.88-60.54zm-209.13 5.13c9.3 16.5 17.76 30.45 38.1 30.45 19.45 0 31.72-7.61 31.72-37.2v-201.3h59.2v202.1c0 61.3-35.94 89.2-88.4 89.2-47.4 0-74.85-24.53-88.81-54.075z"/>
    </symbol>

    <!-- typescript icon -->
    <symbol id="typescript" fill="none" viewBox="0 0 512 512">
      <rect fill="#3178c6" height="512" rx="50" width="512"/>
      <rect fill="#3178c6" height="512" rx="50" width="512"/>
      <path clip-rule="evenodd" fill="#fff" fill-rule="evenodd" d="m316.939 407.424v50.061c8.138 4.172 17.763 7.3 28.875 9.386s22.823 3.129 35.135 3.129c11.999 0 23.397-1.147 34.196-3.442 10.799-2.294 20.268-6.075 28.406-11.342 8.138-5.266 14.581-12.15 19.328-20.65s7.121-19.007 7.121-31.522c0-9.074-1.356-17.026-4.069-23.857s-6.625-12.906-11.738-18.225c-5.112-5.319-11.242-10.091-18.389-14.315s-15.207-8.213-24.18-11.967c-6.573-2.712-12.468-5.345-17.685-7.9-5.217-2.556-9.651-5.163-13.303-7.822-3.652-2.66-6.469-5.476-8.451-8.448-1.982-2.973-2.974-6.336-2.974-10.091 0-3.441.887-6.544 2.661-9.308s4.278-5.136 7.512-7.118c3.235-1.981 7.199-3.52 11.894-4.615 4.696-1.095 9.912-1.642 15.651-1.642 4.173 0 8.581.313 13.224.938 4.643.626 9.312 1.591 14.008 2.894 4.695 1.304 9.259 2.947 13.694 4.928 4.434 1.982 8.529 4.276 12.285 6.884v-46.776c-7.616-2.92-15.937-5.084-24.962-6.492s-19.381-2.112-31.066-2.112c-11.895 0-23.163 1.278-33.805 3.833s-20.006 6.544-28.093 11.967c-8.086 5.424-14.476 12.333-19.171 20.729-4.695 8.395-7.043 18.433-7.043 30.114 0 14.914 4.304 27.638 12.912 38.172 8.607 10.533 21.675 19.45 39.204 26.751 6.886 2.816 13.303 5.579 19.25 8.291s11.086 5.528 15.415 8.448c4.33 2.92 7.747 6.101 10.252 9.543 2.504 3.441 3.756 7.352 3.756 11.733 0 3.233-.783 6.231-2.348 8.995s-3.939 5.162-7.121 7.196-7.147 3.624-11.894 4.771c-4.748 1.148-10.303 1.721-16.668 1.721-10.851 0-21.597-1.903-32.24-5.71-10.642-3.806-20.502-9.516-29.579-17.13zm-84.159-123.342h64.22v-41.082h-179v41.082h63.906v182.918h50.874z"/>
    </symbol>

    <!-- tailwind icon -->
    <symbol id="tailwind" viewBox="0 0 47 40" fill="none">
      <path fill="#6366f1" d="M23.5 6.5C17.5 6.5 13.75 9.5 12.25 15.5C14.5 12.5 17.125 11.375 20.125 12.125C21.8367 12.5529 23.0601 13.7947 24.4142 15.1692C26.6202 17.4084 29.1734 20 34.75 20C40.75 20 44.5 17 46 11C43.75 14 41.125 15.125 38.125 14.375C36.4133 13.9471 35.1899 12.7053 33.8357 11.3308C31.6297 9.09158 29.0766 6.5 23.5 6.5ZM12.25 20C6.25 20 2.5 23 1 29C3.25 26 5.875 24.875 8.875 25.625C10.5867 26.0529 11.8101 27.2947 13.1642 28.6693C15.3702 30.9084 17.9234 33.5 23.5 33.5C29.5 33.5 33.25 30.5 34.75 24.5C32.5 27.5 29.875 28.625 26.875 27.875C25.1633 27.4471 23.9399 26.2053 22.5858 24.8307C20.3798 22.5916 17.8266 20 12.25 20Z"/>
    </symbol>

    <!-- bootstrap icon -->
    <symbol id="tailwind" viewBox="0 0 47 40" fill="none">
      
            <svg viewBox="0 0 128 128">
            <defs><linearGradient id="a" x1="76.079" x2="523.48" y1="10.798" y2="365.95" gradientTransform="translate(1.11 14.613) scale(.24566)" gradientUnits="userSpaceOnUse"><stop offset="0" stop-color="#9013fe"></stop><stop offset="1" stop-color="#6610f2"></stop></linearGradient><linearGradient id="b" x1="193.51" x2="293.51" y1="109.74" y2="278.87" gradientTransform="translate(0 52)" gradientUnits="userSpaceOnUse"><stop offset="0" stop-color="#fff"></stop><stop offset="1" stop-color="#f1e5fc"></stop></linearGradient><filter id="c" width="197" height="249" x="161.9" y="135.46" color-interpolation-filters="sRGB" filterUnits="userSpaceOnUse"><feFlood flood-opacity="0" result="BackgroundImageFix"></feFlood><feColorMatrix in="SourceAlpha" values="0 0 0 0 0 0 0 0 0 0 0 0 0 0 0 0 0 0 127 0"></feColorMatrix><feOffset dy="4"></feOffset><feGaussianBlur stdDeviation="8"></feGaussianBlur><feColorMatrix values="0 0 0 0 0 0 0 0 0 0 0 0 0 0 0 0 0 0 0.15 0"></feColorMatrix><feBlend in2="BackgroundImageFix" result="effect1_dropShadow"></feBlend><feBlend in="SourceGraphic" in2="effect1_dropShadow" result="shape"></feBlend></filter></defs><path fill="url(#a)" d="M14.985 27.712c-.237-6.815 5.072-13.099 12.249-13.099h73.54c7.177 0 12.486 6.284 12.249 13.099-.228 6.546.068 15.026 2.202 21.94 2.141 6.936 5.751 11.319 11.664 11.883v6.387c-5.913.564-9.523 4.947-11.664 11.883-2.134 6.914-2.43 15.394-2.202 21.94.237 6.815-5.072 13.098-12.249 13.098h-73.54c-7.177 0-12.486-6.284-12.249-13.098.228-6.546-.068-15.026-2.203-21.94-2.14-6.935-5.76-11.319-11.673-11.883v-6.387c5.913-.563 9.533-4.947 11.673-11.883 2.135-6.914 2.43-15.394 2.203-21.94z"></path><path fill="url(#b)" d="M267.1 364.46c47.297 0 75.798-23.158 75.798-61.355 0-28.873-20.336-49.776-50.532-53.085v-1.203c22.185-3.609 39.594-24.211 39.594-47.219 0-32.783-25.882-54.138-65.322-54.138h-88.74v217zm-54.692-189.48h45.911c24.958 0 39.131 11.128 39.131 31.279 0 21.505-16.484 33.535-46.372 33.535h-38.67zm0 161.96v-71.431h45.602c32.661 0 49.608 12.03 49.608 35.49 0 23.459-16.484 35.941-47.605 35.941z" filter="url(#c)" transform="translate(1.494 2.203) scale(.24566)"></path>
            </svg>
          
    </symbol>

    <!-- vuejs icon -->
    <symbol id="vue" viewBox="0 0 47 40" fill="none">     
      <svg viewBox="0 0 128 128">
      <path d="M0 8.934l49.854.158 14.167 24.47 14.432-24.47L128 8.935l-63.834 110.14zm126.98.637l-24.36.02-38.476 66.053L25.691 9.592.942 9.572l63.211 107.89zm-25.149-.008l-22.745.168-15.053 24.647L49.216 9.73l-22.794-.168 37.731 64.476zm-75.834-.17l23.002.009m-23.002-.01l23.002.01" fill="none"></path><path d="M25.997 9.393l23.002.009L64.035 34.36 79.018 9.404 102 9.398 64.15 75.053z" fill="#35495e"></path><path d="M.91 9.569l25.067-.172 38.15 65.659L101.98 9.401l25.11.026-62.966 108.06z" fill="#41b883"></path>
      </svg>
    </symbol>

    <!-- nodejs icon -->
    <symbol id="node" viewBox="0 0 47 40" fill="none">     
      <svg viewBox="0 0 128 128">
      <path fill="#5fa04e" d="M114.313 55.254a.26.26 0 0 0-.145.044l-2.346 1.37a.3.3 0 0 0-.142.26v2.74c0 .116.055.204.142.262l2.346 1.368a.262.262 0 0 0 .29 0l2.342-1.368a.308.308 0 0 0 .145-.263V56.93a.303.303 0 0 0-.145-.26l-2.343-1.371a.26.26 0 0 0-.144-.044zM63.22 71.638c-.427 0-.852.104-1.214.308l-11.549 6.727a2.457 2.457 0 0 0-1.214 2.124V94.22c0 .874.462 1.69 1.214 2.128l3.04 1.746c1.476.728 1.997.726 2.662.726 2.17 0 3.415-1.339 3.415-3.64V81.935a.356.356 0 0 0-.348-.351h-1.474a.356.356 0 0 0-.35.351v13.248c0 1.019-1.069 2.04-2.776 1.167l-3.155-1.835c-.116-.058-.175-.206-.175-.322V80.767c0-.116.059-.26.175-.319l11.545-6.697c.087-.058.233-.058.349 0l11.548 6.697c.115.059.172.174.172.32v13.424c0 .145-.057.264-.172.322l-11.548 6.727c-.087.058-.233.058-.349 0l-2.951-1.779c-.087-.058-.203-.087-.29-.029-.81.466-.952.527-1.734.789-.174.058-.463.173.115.493l3.85 2.302c.376.203.78.319 1.214.319.434 0 .867-.115 1.214-.26l11.549-6.727a2.463 2.463 0 0 0 1.214-2.128V80.797c0-.874-.462-1.687-1.214-2.124l-11.549-6.727a2.488 2.488 0 0 0-1.214-.308Zm18.03 6.13a2.236 2.236 0 0 0-2.227 2.243 2.236 2.236 0 0 0 2.227 2.242c1.217 0 2.228-1.019 2.228-2.242a2.254 2.254 0 0 0-2.228-2.242zm-.03.379a1.86 1.86 0 0 1 1.883 1.864c0 1.02-.84 1.894-1.882 1.894-1.012 0-1.852-.846-1.852-1.894s.869-1.864 1.852-1.864zm-.809.611v2.562h.494v-1.016h.434c.174 0 .231.058.26.203 0 .03.086.67.086.786h.52c-.058-.116-.087-.466-.116-.67-.028-.32-.056-.553-.404-.582.174-.059.463-.146.463-.612 0-.67-.58-.67-.868-.67zm.435.408h.404c.146 0 .376 0 .376.349 0 .116-.056.351-.376.351h-.405zm-14.47 2.01c-3.3 0-5.268 1.398-5.268 3.757 0 2.534 1.968 3.23 5.123 3.551 3.79.379 4.08.933 4.08 1.69 0 1.31-1.044 1.864-3.475 1.864-3.068 0-3.733-.758-3.965-2.301 0-.175-.142-.29-.316-.29H61.05a.35.35 0 0 0-.346.349c0 1.98 1.041 4.31 6.107 4.31 3.645 0 5.758-1.458 5.758-4.02 0-2.505-1.68-3.174-5.238-3.64-3.59-.466-3.965-.728-3.965-1.572 0-.699.318-1.63 2.98-1.63 2.373 0 3.269.525 3.617 2.126a.34.34 0 0 0 .319.26h1.533c.088 0 .175-.057.234-.115a.476.476 0 0 0 .085-.263c-.231-2.795-2.053-4.077-5.758-4.077z"></path><path fill="#333" d="M86.072 24.664a.71.71 0 0 0-.352.089.755.755 0 0 0-.375.638V44.32c0 .174-.09.35-.263.466a.549.549 0 0 1-.52 0l-3.066-1.775a1.486 1.486 0 0 0-1.478 0L67.75 50.146a1.48 1.48 0 0 0-.753 1.279v14.24c0 .524.29 1.02.753 1.282l12.27 7.135a1.486 1.486 0 0 0 1.477 0l12.269-7.135c.463-.262.753-.758.753-1.282V30.168c0-.553-.29-1.05-.753-1.311l-7.32-4.104a.836.836 0 0 0-.373-.089zM13.687 42.43c-.231 0-.462.084-.664.2L.753 49.739A1.493 1.493 0 0 0 0 51.047l.03 19.102c0 .263.143.525.375.642a.656.656 0 0 0 .724 0l7.294-4.193c.463-.262.75-.758.75-1.282v-8.94c0-.524.29-1.02.754-1.282l3.096-1.805c.231-.146.493-.204.753-.204s.521.058.724.204l3.096 1.805c.463.262.753.758.753 1.282v8.94c0 .524.288 1.02.75 1.282l7.236 4.193a.704.704 0 0 0 .753 0 .724.724 0 0 0 .376-.642V51.047c0-.524-.29-1.02-.754-1.283L14.47 42.63a1.763 1.763 0 0 0-.664-.201Zm100.667.21c-.253 0-.504.066-.736.198l-12.272 7.131c-.463.262-.75.758-.75 1.283v14.24c0 .524.287 1.02.75 1.282l12.184 6.987a1.43 1.43 0 0 0 1.447 0l7.38-4.133a.724.724 0 0 0 .375-.642.724.724 0 0 0-.375-.64L110.03 61.21a.76.76 0 0 1-.375-.641v-4.456a.72.72 0 0 1 .375-.64l3.85-2.214a.705.705 0 0 1 .753 0l3.846 2.213a.762.762 0 0 1 .378.641v3.495c0 .263.144.525.375.641a.704.704 0 0 0 .754 0l7.291-4.28a1.46 1.46 0 0 0 .724-1.283v-3.465c0-.524-.29-1.017-.724-1.28l-12.184-7.104a1.499 1.499 0 0 0-.738-.198zM80.757 53.274c.065 0 .131.015.19.045l4.194 2.446c.116.058.175.202.175.319v4.892c0 .146-.059.264-.175.322l-4.195 2.446a.431.431 0 0 1-.378 0l-4.195-2.446c-.116-.058-.175-.205-.175-.322v-4.892c0-.146.06-.261.175-.32l4.195-2.445a.425.425 0 0 1 .19-.045z"></path><path fill="url(#a)" d="M47.982 42.893a1.484 1.484 0 0 0-1.476 0L34.322 49.97a1.456 1.456 0 0 0-.724 1.281v14.181c0 .525.29 1.02.724 1.282l12.184 7.076a1.484 1.484 0 0 0 1.476 0l12.183-7.076c.463-.262.724-.757.724-1.282V51.251c0-.524-.29-1.02-.724-1.281z"></path><path fill="url(#b)" d="m60.194 49.97-12.241-7.077a1.996 1.996 0 0 0-.376-.145L33.859 66.364c.116.146.26.262.405.35l12.242 7.076c.347.204.752.262 1.128.145l12.879-23.703a.905.905 0 0 0-.319-.262z"></path><path fill="url(#c)" d="M60.194 66.713c.348-.204.608-.553.724-.932l-13.4-23.063c-.346-.058-.723-.029-1.041.175L34.322 49.94l13.11 24.053c.173-.029.376-.087.55-.175z"></path><linearGradient id="a" x1="34.513" x2="27.157" y1="15.535" y2="30.448" gradientTransform="translate(0 24.664) scale(1.51263)" gradientUnits="userSpaceOnUse"><stop stop-color="#3F873F"></stop><stop offset=".33" stop-color="#3F8B3D"></stop><stop offset=".637" stop-color="#3E9638"></stop><stop offset=".934" stop-color="#3DA92E"></stop><stop offset="1" stop-color="#3DAE2B"></stop></linearGradient><linearGradient id="b" x1="30.009" x2="50.533" y1="23.359" y2="8.288" gradientTransform="translate(0 24.664) scale(1.51263)" gradientUnits="userSpaceOnUse"><stop offset=".138" stop-color="#3F873F"></stop><stop offset=".402" stop-color="#52A044"></stop><stop offset=".713" stop-color="#64B749"></stop><stop offset=".908" stop-color="#6ABF4B"></stop></linearGradient><linearGradient id="c" x1="21.917" x2="40.555" y1="22.261" y2="22.261" gradientTransform="translate(0 24.664) scale(1.51263)" gradientUnits="userSpaceOnUse"><stop offset=".092" stop-color="#6ABF4B"></stop><stop offset=".287" stop-color="#64B749"></stop><stop offset=".598" stop-color="#52A044"></stop><stop offset=".862" stop-color="#3F873F"></stop></linearGradient>
      </svg>        
    </symbol>

    <!-- firebase icon -->
    <symbol id="firebase" viewBox="0 0 47 40" fill="none">     
      <svg viewBox="0 0 128 128">
      <path fill="#ffa000" d="M17.474 103.276 33.229 2.462a2.91 2.91 0 0 1 5.44-.924l16.294 30.39 6.494-12.366a2.91 2.91 0 0 1 5.15 0l43.97 83.714H17.474Z"></path><path fill="#f57c00" d="M71.903 64.005 54.955 31.913l-37.481 71.363Z"></path><path fill="#ffca28" d="M110.577 103.276 98.51 28.604a2.913 2.913 0 0 0-1.984-2.286 2.906 2.906 0 0 0-2.94.714l-76.112 76.243 42.115 23.618a8.728 8.728 0 0 0 8.51 0l42.478-23.618Z"></path><path fill="#fff" fill-opacity=".2" d="M98.51 28.604a2.913 2.913 0 0 0-1.984-2.286 2.906 2.906 0 0 0-2.94.713L78.479 42.178 66.6 19.562a2.91 2.91 0 0 0-5.15 0l-6.494 12.365L38.662 1.538A2.91 2.91 0 0 0 35.605.044a2.907 2.907 0 0 0-2.384 2.425L17.474 103.276h-.051l.05.058.415.204 75.676-75.764a2.91 2.91 0 0 1 4.932 1.571l11.965 74.003.116-.073L98.51 28.603Zm-80.898 74.534L33.228 3.182A2.91 2.91 0 0 1 35.613.756a2.911 2.911 0 0 1 3.057 1.495l16.292 30.39 6.495-12.366a2.91 2.91 0 0 1 5.15 0L78.245 42.41 17.61 103.138Z"></path><path fill="#a52714" d="M68.099 126.18a8.728 8.728 0 0 1-8.51 0l-42.015-23.55-.102.647 42.115 23.61a8.728 8.728 0 0 0 8.51 0l42.48-23.61-.11-.67-42.37 23.575z" opacity=".2"></path>
      </svg>  
    </symbol>

    <!-- git icon -->
    <symbol id="git" viewBox="0 0 47 40" fill="none">     
      
            <svg viewBox="0 0 128 128">
            <path fill="#F34F29" d="M124.737 58.378L69.621 3.264c-3.172-3.174-8.32-3.174-11.497 0L46.68 14.71l14.518 14.518c3.375-1.139 7.243-.375 9.932 2.314 2.703 2.706 3.461 6.607 2.294 9.993l13.992 13.993c3.385-1.167 7.292-.413 9.994 2.295 3.78 3.777 3.78 9.9 0 13.679a9.673 9.673 0 01-13.683 0 9.677 9.677 0 01-2.105-10.521L68.574 47.933l-.002 34.341a9.708 9.708 0 012.559 1.828c3.778 3.777 3.778 9.898 0 13.683-3.779 3.777-9.904 3.777-13.679 0-3.778-3.784-3.778-9.905 0-13.683a9.65 9.65 0 013.167-2.11V47.333a9.581 9.581 0 01-3.167-2.111c-2.862-2.86-3.551-7.06-2.083-10.576L41.056 20.333 3.264 58.123a8.133 8.133 0 000 11.5l55.117 55.114c3.174 3.174 8.32 3.174 11.499 0l54.858-54.858a8.135 8.135 0 00-.001-11.501z"></path>
            </svg>
          
    </symbol>

    <!-- github icon -->
    <symbol id="github" viewBox="0 0 47 40" fill="none">     
      
            <svg viewBox="0 0 128 128">
            <g fill="#181616"><path fill-rule="evenodd" clip-rule="evenodd" d="M64 5.103c-33.347 0-60.388 27.035-60.388 60.388 0 26.682 17.303 49.317 41.297 57.303 3.017.56 4.125-1.31 4.125-2.905 0-1.44-.056-6.197-.082-11.243-16.8 3.653-20.345-7.125-20.345-7.125-2.747-6.98-6.705-8.836-6.705-8.836-5.48-3.748.413-3.67.413-3.67 6.063.425 9.257 6.223 9.257 6.223 5.386 9.23 14.127 6.562 17.573 5.02.542-3.903 2.107-6.568 3.834-8.076-13.413-1.525-27.514-6.704-27.514-29.843 0-6.593 2.36-11.98 6.223-16.21-.628-1.52-2.695-7.662.584-15.98 0 0 5.07-1.623 16.61 6.19C53.7 35 58.867 34.327 64 34.304c5.13.023 10.3.694 15.127 2.033 11.526-7.813 16.59-6.19 16.59-6.19 3.287 8.317 1.22 14.46.593 15.98 3.872 4.23 6.215 9.617 6.215 16.21 0 23.194-14.127 28.3-27.574 29.796 2.167 1.874 4.097 5.55 4.097 11.183 0 8.08-.07 14.583-.07 16.572 0 1.607 1.088 3.49 4.148 2.897 23.98-7.994 41.263-30.622 41.263-57.294C124.388 32.14 97.35 5.104 64 5.104z"></path><path d="M26.484 91.806c-.133.3-.605.39-1.035.185-.44-.196-.685-.605-.543-.906.13-.31.603-.395 1.04-.188.44.197.69.61.537.91zm2.446 2.729c-.287.267-.85.143-1.232-.28-.396-.42-.47-.983-.177-1.254.298-.266.844-.14 1.24.28.394.426.472.984.17 1.255zM31.312 98.012c-.37.258-.976.017-1.35-.52-.37-.538-.37-1.183.01-1.44.373-.258.97-.025 1.35.507.368.545.368 1.19-.01 1.452zm3.261 3.361c-.33.365-1.036.267-1.552-.23-.527-.487-.674-1.18-.343-1.544.336-.366 1.045-.264 1.564.23.527.486.686 1.18.333 1.543zm4.5 1.951c-.147.473-.825.688-1.51.486-.683-.207-1.13-.76-.99-1.238.14-.477.823-.7 1.512-.485.683.206 1.13.756.988 1.237zm4.943.361c.017.498-.563.91-1.28.92-.723.017-1.308-.387-1.315-.877 0-.503.568-.91 1.29-.924.717-.013 1.306.387 1.306.88zm4.598-.782c.086.485-.413.984-1.126 1.117-.7.13-1.35-.172-1.44-.653-.086-.498.422-.997 1.122-1.126.714-.123 1.354.17 1.444.663zm0 0"></path></g>
            </svg>
            
    </symbol>

    <!-- express icon -->
    <symbol id="express" viewBox="0 0 47 40" fill="#fff">     
      
            
            <svg viewBox="0 0 128 128">
            <path d="M126.67 98.44c-4.56 1.16-7.38.05-9.91-3.75-5.68-8.51-11.95-16.63-18-24.9-.78-1.07-1.59-2.12-2.6-3.45C89 76 81.85 85.2 75.14 94.77c-2.4 3.42-4.92 4.91-9.4 3.7l26.92-36.13L67.6 29.71c4.31-.84 7.29-.41 9.93 3.45 5.83 8.52 12.26 16.63 18.67 25.21 6.45-8.55 12.8-16.67 18.8-25.11 2.41-3.42 5-4.72 9.33-3.46-3.28 4.35-6.49 8.63-9.72 12.88-4.36 5.73-8.64 11.53-13.16 17.14-1.61 2-1.35 3.3.09 5.19C109.9 76 118.16 87.1 126.67 98.44zM1.33 61.74c.72-3.61 1.2-7.29 2.2-10.83 6-21.43 30.6-30.34 47.5-17.06C60.93 41.64 63.39 52.62 62.9 65H7.1c-.84 22.21 15.15 35.62 35.53 28.78 7.15-2.4 11.36-8 13.47-15 1.07-3.51 2.84-4.06 6.14-3.06-1.69 8.76-5.52 16.08-13.52 20.66-12 6.86-29.13 4.64-38.14-4.89C5.26 85.89 3 78.92 2 71.39c-.15-1.2-.46-2.38-.7-3.57q.03-3.04.03-6.08zm5.87-1.49h50.43c-.33-16.06-10.33-27.47-24-27.57-15-.12-25.78 11.02-26.43 27.57z"></path>
            </svg>
          
            
    </symbol>

    <!-- mongodb icon -->
    <symbol id="mongodb" viewBox="0 0 47 40" fill="none">     
      
            <svg viewBox="0 0 128 128">
            <path fill-rule="evenodd" clip-rule="evenodd" fill="#439934" d="M88.038 42.812c1.605 4.643 2.761 9.383 3.141 14.296.472 6.095.256 12.147-1.029 18.142-.035.165-.109.32-.164.48-.403.001-.814-.049-1.208.012-3.329.523-6.655 1.065-9.981 1.604-3.438.557-6.881 1.092-10.313 1.687-1.216.21-2.721-.041-3.212 1.641-.014.046-.154.054-.235.08l.166-10.051-.169-24.252 1.602-.275c2.62-.429 5.24-.864 7.862-1.281 3.129-.497 6.261-.98 9.392-1.465 1.381-.215 2.764-.412 4.148-.618z"></path><path fill-rule="evenodd" clip-rule="evenodd" fill="#45A538" d="M61.729 110.054c-1.69-1.453-3.439-2.842-5.059-4.37-8.717-8.222-15.093-17.899-18.233-29.566-.865-3.211-1.442-6.474-1.627-9.792-.13-2.322-.318-4.665-.154-6.975.437-6.144 1.325-12.229 3.127-18.147l.099-.138c.175.233.427.439.516.702 1.759 5.18 3.505 10.364 5.242 15.551 5.458 16.3 10.909 32.604 16.376 48.9.107.318.384.579.583.866l-.87 2.969z"></path><path fill-rule="evenodd" clip-rule="evenodd" fill="#46A037" d="M88.038 42.812c-1.384.206-2.768.403-4.149.616-3.131.485-6.263.968-9.392 1.465-2.622.417-5.242.852-7.862 1.281l-1.602.275-.012-1.045c-.053-.859-.144-1.717-.154-2.576-.069-5.478-.112-10.956-.18-16.434-.042-3.429-.105-6.857-.175-10.285-.043-2.13-.089-4.261-.185-6.388-.052-1.143-.236-2.28-.311-3.423-.042-.657.016-1.319.029-1.979.817 1.583 1.616 3.178 2.456 4.749 1.327 2.484 3.441 4.314 5.344 6.311 7.523 7.892 12.864 17.068 16.193 27.433z"></path><path fill-rule="evenodd" clip-rule="evenodd" fill="#409433" d="M65.036 80.753c.081-.026.222-.034.235-.08.491-1.682 1.996-1.431 3.212-1.641 3.432-.594 6.875-1.13 10.313-1.687 3.326-.539 6.652-1.081 9.981-1.604.394-.062.805-.011 1.208-.012-.622 2.22-1.112 4.488-1.901 6.647-.896 2.449-1.98 4.839-3.131 7.182a49.142 49.142 0 01-6.353 9.763c-1.919 2.308-4.058 4.441-6.202 6.548-1.185 1.165-2.582 2.114-3.882 3.161l-.337-.23-1.214-1.038-1.256-2.753a41.402 41.402 0 01-1.394-9.838l.023-.561.171-2.426c.057-.828.133-1.655.168-2.485.129-2.982.241-5.964.359-8.946z"></path><path fill-rule="evenodd" clip-rule="evenodd" fill="#4FAA41" d="M65.036 80.753c-.118 2.982-.23 5.964-.357 8.947-.035.83-.111 1.657-.168 2.485l-.765.289c-1.699-5.002-3.399-9.951-5.062-14.913-2.75-8.209-5.467-16.431-8.213-24.642a4498.887 4498.887 0 00-6.7-19.867c-.105-.31-.407-.552-.617-.826l4.896-9.002c.168.292.39.565.496.879a6167.476 6167.476 0 016.768 20.118c2.916 8.73 5.814 17.467 8.728 26.198.116.349.308.671.491 1.062l.67-.78-.167 10.052z"></path><path fill-rule="evenodd" clip-rule="evenodd" fill="#4AA73C" d="M43.155 32.227c.21.274.511.516.617.826a4498.887 4498.887 0 016.7 19.867c2.746 8.211 5.463 16.433 8.213 24.642 1.662 4.961 3.362 9.911 5.062 14.913l.765-.289-.171 2.426-.155.559c-.266 2.656-.49 5.318-.814 7.968-.163 1.328-.509 2.632-.772 3.947-.198-.287-.476-.548-.583-.866-5.467-16.297-10.918-32.6-16.376-48.9a3888.972 3888.972 0 00-5.242-15.551c-.089-.263-.34-.469-.516-.702l3.272-8.84z"></path><path fill-rule="evenodd" clip-rule="evenodd" fill="#57AE47" d="M65.202 70.702l-.67.78c-.183-.391-.375-.714-.491-1.062-2.913-8.731-5.812-17.468-8.728-26.198a6167.476 6167.476 0 00-6.768-20.118c-.105-.314-.327-.588-.496-.879l6.055-7.965c.191.255.463.482.562.769 1.681 4.921 3.347 9.848 5.003 14.778 1.547 4.604 3.071 9.215 4.636 13.813.105.308.47.526.714.786l.012 1.045c.058 8.082.115 16.167.171 24.251z"></path><path fill-rule="evenodd" clip-rule="evenodd" fill="#60B24F" d="M65.021 45.404c-.244-.26-.609-.478-.714-.786-1.565-4.598-3.089-9.209-4.636-13.813-1.656-4.93-3.322-9.856-5.003-14.778-.099-.287-.371-.514-.562-.769 1.969-1.928 3.877-3.925 5.925-5.764 1.821-1.634 3.285-3.386 3.352-5.968.003-.107.059-.214.145-.514l.519 1.306c-.013.661-.072 1.322-.029 1.979.075 1.143.259 2.28.311 3.423.096 2.127.142 4.258.185 6.388.069 3.428.132 6.856.175 10.285.067 5.478.111 10.956.18 16.434.008.861.098 1.718.152 2.577z"></path><path fill-rule="evenodd" clip-rule="evenodd" fill="#A9AA88" d="M62.598 107.085c.263-1.315.609-2.62.772-3.947.325-2.649.548-5.312.814-7.968l.066-.01.066.011a41.402 41.402 0 001.394 9.838c-.176.232-.425.439-.518.701-.727 2.05-1.412 4.116-2.143 6.166-.1.28-.378.498-.574.744l-.747-2.566.87-2.969z"></path><path fill-rule="evenodd" clip-rule="evenodd" fill="#B6B598" d="M62.476 112.621c.196-.246.475-.464.574-.744.731-2.05 1.417-4.115 2.143-6.166.093-.262.341-.469.518-.701l1.255 2.754c-.248.352-.59.669-.728 1.061l-2.404 7.059c-.099.283-.437.483-.663.722l-.695-3.985z"></path><path fill-rule="evenodd" clip-rule="evenodd" fill="#C2C1A7" d="M63.171 116.605c.227-.238.564-.439.663-.722l2.404-7.059c.137-.391.48-.709.728-1.061l1.215 1.037c-.587.58-.913 1.25-.717 2.097l-.369 1.208c-.168.207-.411.387-.494.624-.839 2.403-1.64 4.819-2.485 7.222-.107.305-.404.544-.614.812-.109-1.387-.22-2.771-.331-4.158z"></path><path fill-rule="evenodd" clip-rule="evenodd" fill="#CECDB7" d="M63.503 120.763c.209-.269.506-.508.614-.812.845-2.402 1.646-4.818 2.485-7.222.083-.236.325-.417.494-.624l-.509 5.545c-.136.157-.333.294-.398.477-.575 1.614-1.117 3.24-1.694 4.854-.119.333-.347.627-.525.938-.158-.207-.441-.407-.454-.623-.051-.841-.016-1.688-.013-2.533z"></path><path fill-rule="evenodd" clip-rule="evenodd" fill="#DBDAC7" d="M63.969 123.919c.178-.312.406-.606.525-.938.578-1.613 1.119-3.239 1.694-4.854.065-.183.263-.319.398-.477l.012 3.64-1.218 3.124-1.411-.495z"></path><path fill-rule="evenodd" clip-rule="evenodd" fill="#EBE9DC" d="M65.38 124.415l1.218-3.124.251 3.696-1.469-.572z"></path><path fill-rule="evenodd" clip-rule="evenodd" fill="#CECDB7" d="M67.464 110.898c-.196-.847.129-1.518.717-2.097l.337.23-1.054 1.867z"></path><path fill-rule="evenodd" clip-rule="evenodd" fill="#4FAA41" d="M64.316 95.172l-.066-.011-.066.01.155-.559-.023.56z"></path>
            </svg>
          
            
    </symbol>

    <!-- nuxt icon -->
    <symbol id="nuxt" viewBox="0 0 47 40" fill="none">     
      
            
            <svg viewBox="0 0 128 128">
            <path d="M39.267 108.97l-.284-.567c-.567-1.135-.567-2.27-.283-3.689H8.059L53.454 24.14l19.009 34.33 6.241-4.54L59.695 19.6c-.283-.567-2.553-3.971-6.241-3.971-1.703 0-4.256.567-6.242 4.255L1.25 101.31c-.284.852-2.27 4.54-.568 7.66 1.135 1.703 2.838 3.405 6.81 3.405h38.585c-3.972 0-5.958-1.702-6.81-3.404z" fill="#00c58e"></path><path d="M126.65 101.59L89.767 35.201c-.567-.567-2.553-4.256-6.242-4.256-1.702 0-4.255.851-6.241 4.256l-4.823 7.944v15.321l11.065-19.009 36.599 65.254h-13.902a6.525 6.525 0 01-.568 3.972l-.284.284c-1.702 3.12-5.958 3.404-6.525 3.404h21.562c.851 0 4.823-.283 6.809-3.404.851-1.419 1.419-3.972-.567-7.377z" fill="#108775"></path><path d="M106.51 108.97v-.284l.284-.567c.283-1.135.567-2.27.283-3.405l-1.134-3.404-28.938-50.501-4.256-7.66h-.284l-4.256 7.66-28.938 50.5-1.134 3.405a6.81 6.81 0 00.567 4.256c1.135 1.702 2.837 3.405 6.809 3.405h53.906c.851 0 5.107-.284 7.093-3.405zM72.464 58.469l26.386 46.245H46.079z" fill="#2f495e"></path>
            </svg>
          
          
            
    </symbol>
          
  </defs>
</svg>
